HIERARCHY
ROOT hips
{
	OFFSET -0.003675 0.299928 -0.021708
	CHANNELS 6 Xposition Yposition Zposition Xrotation Yrotation Zrotation
	JOINT LowerBack
	{
		OFFSET 0.000919 0.177588 0.009275
		CHANNELS 3 Xrotation Yrotation Zrotation
		JOINT spine
		{
			OFFSET 0.000919 0.177588 0.009275
			CHANNELS 3 Xrotation Yrotation Zrotation
			JOINT chest
			{
				OFFSET 0.000456 0.100015 0.004638
				CHANNELS 3 Xrotation Yrotation Zrotation
				JOINT neck
				{
					OFFSET 0.000456 0.100015 0.004638
					CHANNELS 3 Xrotation Yrotation Zrotation
					JOINT head
					{
						OFFSET 0.000924 0.155147 0.009274
						CHANNELS 6 Xposition Yposition Zposition Xrotation Yrotation Zrotation
						End Site
						{
							OFFSET 0.000000 0.153400 0.000000
						}
					}
				}
				JOINT shoulder.L
				{
					OFFSET 0.019937 0.078966 0.057518
					CHANNELS 6 Xposition Yposition Zposition Yrotation Xrotation Zrotation
					JOINT upper_arm.L
					{
						OFFSET 0.177024 -0.020465 -0.095062
						CHANNELS 6 Xposition Yposition Zposition Xrotation Yrotation Zrotation
						JOINT forearm.L
						{
							OFFSET 0.247100 -0.135500 -0.061800
							CHANNELS 3 Xrotation Yrotation Zrotation
							JOINT hand.L
							{
								OFFSET 0.217000 -0.143000 0.039300
								CHANNELS 3 Xrotation Yrotation Zrotation
								JOINT palm.01.L
								{
									OFFSET 0.021770 -0.038291 0.012954
									CHANNELS 6 Xposition Yposition Zposition Yrotation Xrotation Zrotation
									JOINT f_index.01.L
									{
										OFFSET 0.053215 -0.044137 0.008236
										CHANNELS 3 Xrotation Yrotation Zrotation
										JOINT f_index.02.L
										{
											OFFSET 0.036108 -0.024723 -0.010656
											CHANNELS 3 Xrotation Yrotation Zrotation
											JOINT f_index.03.L
											{
												OFFSET 0.021342 -0.014948 -0.010846
												CHANNELS 3 Xrotation Yrotation Zrotation
												End Site
												{
													OFFSET 0.015600 -0.009860 -0.013421
												}
											}
										}
									}
									JOINT thumb.01.L
									{
										OFFSET -0.009090 -0.002348 -0.024223
										CHANNELS 6 Xposition Yposition Zposition Xrotation Yrotation Zrotation
										JOINT thumb.02.L
										{
											OFFSET 0.019713 -0.035076 -0.011120
											CHANNELS 3 Xrotation Yrotation Zrotation
											JOINT thumb.03.L
											{
												OFFSET 0.024877 -0.021748 -0.005176
												CHANNELS 3 Xrotation Yrotation Zrotation
												End Site
												{
													OFFSET 0.016125 -0.013029 -0.001569
												}
											}
										}
									}
								}
								JOINT palm.02.L
								{
									OFFSET 0.032823 -0.025104 0.012281
									CHANNELS 6 Xposition Yposition Zposition Yrotation Xrotation Zrotation
									JOINT f_middle.01.L
									{
										OFFSET 0.055723 -0.038469 0.008037
										CHANNELS 3 Xrotation Yrotation Zrotation
										JOINT f_middle.02.L
										{
											OFFSET 0.038167 -0.027473 -0.015582
											CHANNELS 3 Xrotation Yrotation Zrotation
											JOINT f_middle.03.L
											{
												OFFSET 0.021707 -0.016587 -0.017037
												CHANNELS 3 Xrotation Yrotation Zrotation
												End Site
												{
													OFFSET 0.014112 -0.010584 -0.014294
												}
											}
										}
									}
								}
								JOINT palm.03.L
								{
									OFFSET 0.039230 -0.011402 0.008390
									CHANNELS 6 Xposition Yposition Zposition Yrotation Xrotation Zrotation
									JOINT f_ring.01.L
									{
										OFFSET 0.061796 -0.031470 0.007910
										CHANNELS 3 Xrotation Yrotation Zrotation
										JOINT f_ring.02.L
										{
											OFFSET 0.033092 -0.023401 -0.019127
											CHANNELS 3 Xrotation Yrotation Zrotation
											JOINT f_ring.03.L
											{
												OFFSET 0.021392 -0.015362 -0.017824
												CHANNELS 3 Xrotation Yrotation Zrotation
												End Site
												{
													OFFSET 0.008670 -0.007297 -0.014686
												}
											}
										}
									}
								}
								JOINT palm.04.L
								{
									OFFSET 0.043417 0.002450 0.002889
									CHANNELS 6 Xposition Yposition Zposition Yrotation Xrotation Zrotation
									JOINT f_pinky.01.L
									{
										OFFSET 0.069986 -0.026156 0.003627
										CHANNELS 3 Xrotation Yrotation Zrotation
										JOINT f_pinky.02.L
										{
											OFFSET 0.018520 -0.012813 -0.016429
											CHANNELS 3 Xrotation Yrotation Zrotation
											JOINT f_pinky.03.L
											{
												OFFSET 0.013822 -0.009796 -0.014947
												CHANNELS 3 Xrotation Yrotation Zrotation
												End Site
												{
													OFFSET 0.007238 -0.006103 -0.011657
												}
											}
										}
									}
								}
							}
						}
					}
				}
				JOINT shoulder.R
				{
					OFFSET -0.016662 0.078957 0.057696
					CHANNELS 6 Xposition Yposition Zposition Yrotation Xrotation Zrotation
					JOINT upper_arm.R
					{
						OFFSET -0.176972 -0.020537 -0.095144
						CHANNELS 6 Xposition Yposition Zposition Xrotation Yrotation Zrotation
						JOINT forearm.R
						{
							OFFSET -0.247100 -0.135500 -0.061800
							CHANNELS 3 Xrotation Yrotation Zrotation
							JOINT hand.R
							{
								OFFSET -0.217000 -0.143000 0.039300
								CHANNELS 3 Xrotation Yrotation Zrotation
								JOINT palm.01.R
								{
									OFFSET -0.021773 -0.038278 0.012988
									CHANNELS 6 Xposition Yposition Zposition Yrotation Xrotation Zrotation
									JOINT f_index.01.R
									{
										OFFSET -0.053212 -0.044139 0.008249
										CHANNELS 3 Xrotation Yrotation Zrotation
										JOINT f_index.02.R
										{
											OFFSET -0.036049 -0.024835 -0.010634
											CHANNELS 3 Xrotation Yrotation Zrotation
											JOINT f_index.03.R
											{
												OFFSET -0.021371 -0.014881 -0.010866
												CHANNELS 3 Xrotation Yrotation Zrotation
												End Site
												{
													OFFSET -0.015584 -0.009883 -0.013422
												}
											}
										}
									}
									JOINT thumb.01.R
									{
										OFFSET 0.009113 -0.002381 -0.024211
										CHANNELS 6 Xposition Yposition Zposition Xrotation Yrotation Zrotation
										JOINT thumb.02.R
										{
											OFFSET -0.019694 -0.035097 -0.011088
											CHANNELS 3 Xrotation Yrotation Zrotation
											JOINT thumb.03.R
											{
												OFFSET -0.024867 -0.021762 -0.005168
												CHANNELS 3 Xrotation Yrotation Zrotation
												End Site
												{
													OFFSET -0.016120 -0.013036 -0.001565
												}
											}
										}
									}
								}
								JOINT palm.02.R
								{
									OFFSET -0.032828 -0.025095 0.012286
									CHANNELS 6 Xposition Yposition Zposition Yrotation Xrotation Zrotation
									JOINT f_middle.01.R
									{
										OFFSET -0.055721 -0.038472 0.008040
										CHANNELS 3 Xrotation Yrotation Zrotation
										JOINT f_middle.02.R
										{
											OFFSET -0.038101 -0.027593 -0.015557
											CHANNELS 3 Xrotation Yrotation Zrotation
											JOINT f_middle.03.R
											{
												OFFSET -0.021730 -0.016530 -0.017054
												CHANNELS 3 Xrotation Yrotation Zrotation
												End Site
												{
													OFFSET -0.014096 -0.010608 -0.014293
												}
											}
										}
									}
								}
								JOINT palm.03.R
								{
									OFFSET -0.039192 -0.011488 0.008390
									CHANNELS 6 Xposition Yposition Zposition Yrotation Xrotation Zrotation
									JOINT f_ring.01.R
									{
										OFFSET -0.061839 -0.031387 0.007876
										CHANNELS 3 Xrotation Yrotation Zrotation
										JOINT f_ring.02.R
										{
											OFFSET -0.033068 -0.023437 -0.019125
											CHANNELS 3 Xrotation Yrotation Zrotation
											JOINT f_ring.03.R
											{
												OFFSET -0.021371 -0.015393 -0.017822
												CHANNELS 3 Xrotation Yrotation Zrotation
												End Site
												{
													OFFSET -0.008654 -0.007321 -0.014684
												}
											}
										}
									}
								}
								JOINT palm.04.R
								{
									OFFSET -0.043421 0.002443 0.002845
									CHANNELS 6 Xposition Yposition Zposition Yrotation Xrotation Zrotation
									JOINT f_pinky.01.R
									{
										OFFSET -0.069983 -0.026169 0.003599
										CHANNELS 3 Xrotation Yrotation Zrotation
										JOINT f_pinky.02.R
										{
											OFFSET -0.018501 -0.012842 -0.016428
											CHANNELS 3 Xrotation Yrotation Zrotation
											JOINT f_pinky.03.R
											{
												OFFSET -0.013806 -0.009821 -0.014946
												CHANNELS 3 Xrotation Yrotation Zrotation
												End Site
												{
													OFFSET -0.007226 -0.006121 -0.011655
												}
											}
										}
									}
								}
							}
						}
					}
				}
			}
		}
	}
	JOINT pelvis.L
	{
		OFFSET 0.000000 0.000000 0.000000
		CHANNELS 6 Xposition Yposition Zposition Xrotation Yrotation Zrotation
		JOINT thigh.L
		{
			OFFSET 0.101675 0.001054 -0.000000
			CHANNELS 3 Xrotation Yrotation Zrotation
			JOINT shin.L
			{
				OFFSET 0.000000 -0.534800 0.041000
				CHANNELS 3 Xrotation Yrotation Zrotation
				JOINT foot.L
				{
					OFFSET 0.000000 -0.452000 -0.044800
					CHANNELS 3 Xrotation Yrotation Zrotation
					JOINT toe.L
					{
						OFFSET -0.000000 -0.068500 0.109600
						CHANNELS 3 Xrotation Yrotation Zrotation
						End Site
						{
							OFFSET -0.000000 0.000000 0.067200
						}
					}
				}
				JOINT heel.L
				{
					OFFSET 0.000000 -0.452000 -0.044800
					CHANNELS 3 Xrotation Yrotation Zrotation
					JOINT heel.02.L
					{
						OFFSET -0.038000 -0.085200 0.016200
						CHANNELS 6 Xposition Yposition Zposition Xrotation Yrotation Zrotation
						End Site
						{
							OFFSET 0.080000 -0.000000 0.000000
						}
					}
				}
			}
		}
	}
	JOINT pelvis.R
	{
		OFFSET 0.000000 0.000000 0.000000
		CHANNELS 6 Xposition Yposition Zposition Xrotation Yrotation Zrotation
		JOINT thigh.R
		{
			OFFSET -0.094325 0.001054 0.000000
			CHANNELS 3 Xrotation Yrotation Zrotation
			JOINT shin.R
			{
				OFFSET 0.000000 -0.534800 0.041000
				CHANNELS 3 Xrotation Yrotation Zrotation
				JOINT foot.R
				{
					OFFSET 0.000000 -0.452000 -0.044800
					CHANNELS 3 Xrotation Yrotation Zrotation
					JOINT toe.R
					{
						OFFSET -0.000000 -0.068500 0.109600
						CHANNELS 3 Xrotation Yrotation Zrotation
						End Site
						{
							OFFSET -0.000000 0.000000 0.067200
						}
					}
				}
				JOINT heel.R
				{
					OFFSET 0.000000 -0.452000 -0.044800
					CHANNELS 3 Xrotation Yrotation Zrotation
					JOINT heel.02.R
					{
						OFFSET 0.038000 -0.085200 0.016200
						CHANNELS 6 Xposition Yposition Zposition Xrotation Yrotation Zrotation
						End Site
						{
							OFFSET -0.080000 0.000000 -0.000000
						}
					}
				}
			}
		}
	}
}
MOTION
Frames: 4
Frame Time: 0.041667
-0.012543 0.199145 -0.038165 -9.314338 2.035440 73.936525 0.000000 -0.000001 0.000002 0.000000 -0.000001 -0.000000 0.000000 0.000000 -0.000001 -0.000000 0.000001 -0.000000 0.000924 0.155148 0.009274 26.479407 -0.046742 -16.303855 0.019937 0.078966 0.057518 -8.153076 3.230608 50.015341 0.177024 -0.020465 -0.095062 -49.182188 -5.103760 -34.997602 1.781174 2.711219 4.784681 -0.000001 0.000003 0.000004 0.021770 -0.038291 0.012954 -0.000002 -0.000002 -0.000000 -0.000000 -0.000002 0.000001 -0.000003 0.000001 0.000001 0.000002 -0.000002 0.000001 -0.009090 -0.002348 -0.024224 0.000005 -0.000001 0.000001 -0.000003 -0.000001 -0.000001 0.000004 0.000001 -0.000002 0.032823 -0.025104 0.012281 -0.000003 0.000000 0.000004 0.000004 -0.000001 0.000002 0.000002 0.000002 0.000004 -0.000003 -0.000003 0.000003 0.039230 -0.011402 0.008390 -0.000001 -0.000001 0.000004 -0.000000 0.000001 0.000001 -0.000000 0.000005 0.000004 -0.000001 -0.000004 0.000002 0.043417 0.002450 0.002889 -0.000001 -0.000001 -0.000000 -0.000004 -0.000002 -0.000000 0.000001 0.000005 0.000001 0.000002 -0.000005 -0.000000 -0.016662 0.078957 0.057696 -20.445256 4.561574 -34.595912 -0.176972 -0.020537 -0.095144 -52.551684 -16.691802 58.405426 8.778728 -11.155654 4.003892 -0.000003 0.000001 0.000000 -0.021773 -0.038278 0.012988 -0.000001 -0.000002 -0.000003 -0.000001 0.000001 -0.000001 -0.000003 -0.000001 -0.000008 0.000002 0.000002 0.000004 0.009114 -0.002381 -0.024212 0.000006 -0.000003 -0.000003 0.000004 -0.000002 0.000000 0.000003 0.000001 0.000001 -0.032828 -0.025095 0.012286 0.000000 -0.000004 -0.000001 -0.000002 -0.000000 -0.000003 -0.000001 0.000003 -0.000000 -0.000001 0.000004 -0.000003 -0.039192 -0.011488 0.008390 -0.000000 -0.000004 0.000003 0.000002 0.000001 -0.000002 -0.000002 -0.000004 0.000002 0.000002 0.000003 0.000001 -0.043421 0.002443 0.002845 -0.000002 -0.000001 -0.000002 -0.000006 -0.000001 -0.000002 0.000003 -0.000006 0.000002 -0.000001 -0.000003 0.000001 -0.000000 0.000000 -0.000000 -2.436563 -0.645508 5.821580 -89.430645 -0.293648 0.105726 134.994263 -2.458463 25.672017 -0.000009 -0.000001 0.000001 -0.000004 0.000000 -0.000001 -0.000002 -0.000002 0.000000 -0.038000 -0.085200 0.016200 0.000001 -0.000000 0.000000 -0.000000 0.000000 -0.000000 -2.408555 -0.642358 7.056090 -88.921919 1.368407 13.286087 107.307299 -1.911378 19.678897 0.000003 0.000001 0.000001 0.000004 0.000002 0.000000 0.000002 0.000001 0.000001 0.038000 -0.085200 0.016200 0.000001 -0.000000 -0.000001 
-0.013491 0.198836 -0.037705 -10.786291 2.350249 72.531042 -0.000000 0.000000 0.000003 0.000000 -0.000001 0.000001 -0.000000 -0.000001 -0.000001 -0.000000 -0.000000 0.000000 0.000924 0.155147 0.009274 28.539819 -0.040689 -11.254825 0.019937 0.078966 0.057518 -6.433220 2.937513 48.815348 0.177025 -0.020465 -0.095062 -52.879656 -8.277428 -34.110310 1.340162 1.956828 4.958952 0.000001 -0.000002 -0.000000 0.021770 -0.038291 0.012954 0.000003 0.000002 -0.000002 -0.000000 -0.000005 -0.000002 -0.000003 -0.000002 0.000006 0.000007 0.000002 0.000002 -0.009090 -0.002348 -0.024223 -0.000004 -0.000006 -0.000002 -0.000003 0.000000 0.000001 0.000003 -0.000002 0.000001 0.032823 -0.025104 0.012281 0.000003 -0.000001 0.000004 -0.000001 -0.000000 -0.000005 -0.000002 0.000004 0.000004 0.000003 -0.000001 0.000006 0.039230 -0.011402 0.008390 0.000004 -0.000003 0.000003 -0.000003 0.000005 -0.000002 -0.000001 0.000005 0.000006 0.000001 -0.000000 -0.000000 0.043417 0.002450 0.002889 0.000002 -0.000006 -0.000003 -0.000004 -0.000003 0.000001 -0.000002 0.000001 0.000002 -0.000002 0.000001 0.000000 -0.016662 0.078957 0.057696 -18.891461 4.159557 -35.107118 -0.176972 -0.020537 -0.095144 -53.995589 -13.227701 54.307217 15.930177 -17.747273 9.658456 0.000001 0.000003 0.000003 -0.021773 -0.038278 0.012988 -0.000001 0.000000 -0.000005 0.000001 0.000005 -0.000003 -0.000002 0.000001 -0.000006 -0.000002 -0.000002 0.000003 0.009114 -0.002381 -0.024211 0.000004 0.000001 -0.000000 -0.000002 -0.000002 0.000000 -0.000001 0.000001 -0.000008 -0.032828 -0.025095 0.012286 0.000000 -0.000000 -0.000001 0.000002 0.000000 0.000004 0.000002 0.000001 -0.000005 -0.000003 0.000000 -0.000008 -0.039192 -0.011488 0.008390 0.000001 0.000001 -0.000000 -0.000001 0.000001 0.000000 -0.000005 -0.000002 0.000002 -0.000001 0.000000 -0.000004 -0.043421 0.002443 0.002845 0.000001 -0.000001 -0.000003 -0.000005 0.000003 0.000001 -0.000002 -0.000002 0.000005 -0.000000 -0.000000 0.000001 -0.000000 0.000000 -0.000000 -2.456285 -0.684972 6.206884 -89.276112 -0.341133 -0.501646 135.878677 -2.509955 26.251047 -0.000002 0.000000 -0.000000 -0.000002 -0.000000 -0.000001 0.000002 0.000001 -0.000001 -0.038000 -0.085200 0.016200 0.000001 -0.000001 -0.000001 -0.000000 0.000000 -0.000000 -2.429442 -0.681773 7.441397 -89.595341 1.289183 12.219110 105.120402 -1.971088 20.320615 -0.000003 -0.000000 -0.000002 -0.000000 0.000002 0.000001 0.000003 0.000000 -0.000000 0.038000 -0.085200 0.016200 0.000001 -0.000000 0.000001 
-0.012846 0.201245 -0.038988 -3.236629 1.348261 72.986677 -0.000000 -0.000000 0.000002 0.000000 -0.000000 0.000003 0.000000 0.000000 0.000001 0.000001 -0.000000 0.000000 0.000924 0.155147 0.009274 40.861252 -0.057210 -23.877853 0.019937 0.078966 0.057518 1.545112 2.174032 47.388942 0.177025 -0.020465 -0.095062 -28.031170 -19.415677 -9.054348 -2.120739 -22.673803 29.617903 -0.000007 -0.000002 -0.000004 0.021770 -0.038291 0.012954 0.000000 0.000004 0.000001 -0.000001 -0.000001 -0.000004 -0.000000 -0.000002 0.000006 0.000003 0.000003 -0.000003 -0.009090 -0.002348 -0.024224 0.000002 0.000001 -0.000000 0.000000 0.000000 0.000001 0.000005 0.000003 0.000003 0.032823 -0.025104 0.012281 -0.000001 0.000005 0.000005 -0.000001 0.000001 -0.000003 -0.000003 -0.000006 0.000006 0.000003 0.000003 0.000001 0.039230 -0.011402 0.008390 -0.000000 0.000001 0.000003 0.000003 -0.000001 -0.000002 -0.000005 0.000006 0.000006 0.000002 -0.000003 0.000002 0.043417 0.002450 0.002889 -0.000002 0.000005 -0.000004 -0.000004 -0.000004 -0.000004 -0.000000 0.000003 0.000001 -0.000001 -0.000003 0.000000 -0.016662 0.078957 0.057696 -15.950329 3.644786 -41.286414 -0.176972 -0.020537 -0.095144 -51.762957 14.563288 30.851008 1.119031 0.309825 12.265039 -0.000001 0.000001 0.000000 -0.021773 -0.038278 0.012988 -0.000003 0.000003 -0.000003 0.000000 -0.000002 0.000002 -0.000002 -0.000000 -0.000003 0.000002 0.000000 -0.000001 0.009114 -0.002381 -0.024211 0.000002 -0.000006 -0.000000 -0.000001 -0.000002 0.000004 0.000004 -0.000003 -0.000001 -0.032828 -0.025095 0.012286 -0.000001 0.000004 -0.000001 -0.000003 -0.000000 -0.000003 0.000003 -0.000001 -0.000001 -0.000000 -0.000001 -0.000004 -0.039192 -0.011488 0.008390 0.000001 0.000003 0.000001 0.000002 0.000000 -0.000002 0.000001 -0.000001 0.000002 0.000001 0.000003 -0.000003 -0.043421 0.002443 0.002845 -0.000001 0.000002 0.000002 -0.000002 0.000003 0.000001 -0.000001 -0.000001 -0.000000 -0.000000 -0.000000 0.000003 0.000000 0.000000 -0.000000 -2.650354 -0.750363 6.625969 -90.798383 -0.322316 -0.213037 134.040987 -2.932830 31.126842 -0.000003 0.000001 -0.000001 0.000002 -0.000001 0.000001 0.000003 -0.000002 0.000000 -0.038000 -0.085200 0.016200 0.000005 -0.000001 0.000000 0.000000 0.000000 -0.000000 -2.623131 -0.746917 7.860518 -88.869231 1.202478 11.008077 114.675188 -0.836549 8.474659 -0.000003 0.000000 -0.000000 0.000005 0.000001 0.000000 0.000002 0.000000 -0.000000 0.038000 -0.085200 0.016200 0.000000 0.000001 0.000001 
-0.019840 0.205276 -0.014734 -1.250389 18.616500 89.551150 0.000000 -0.000000 0.000000 0.000001 -0.000000 -0.000000 -0.000001 0.000000 -0.000000 0.000000 0.000000 0.000000 0.000924 0.155148 0.009274 -6.702521 0.015237 -18.184581 0.019937 0.078966 0.057518 -1.147089 -2.860481 28.862351 0.177024 -0.020465 -0.095062 -23.526160 8.006273 -40.019308 0.048002 -0.636921 11.022108 -0.000002 0.000001 0.000005 0.021770 -0.038291 0.012954 -0.000001 0.000001 0.000005 -0.000001 -0.000003 -0.000000 0.000003 -0.000000 0.000005 -0.000002 0.000001 -0.000002 -0.009090 -0.002348 -0.024224 -0.000000 -0.000001 -0.000001 -0.000000 0.000001 -0.000000 -0.000000 0.000000 -0.000002 0.032823 -0.025104 0.012281 -0.000002 0.000002 0.000005 -0.000001 -0.000001 -0.000003 -0.000005 0.000001 0.000002 -0.000003 -0.000002 -0.000000 0.039230 -0.011402 0.008390 -0.000001 0.000001 0.000009 0.000003 0.000000 -0.000002 -0.000000 0.000006 0.000001 0.000002 -0.000002 0.000001 0.043417 0.002450 0.002889 -0.000001 0.000004 0.000002 -0.000001 -0.000005 -0.000000 0.000003 0.000002 0.000000 -0.000001 0.000004 -0.000002 -0.016662 0.078956 0.057696 -6.101186 -0.250571 -33.017616 -0.176972 -0.020537 -0.095144 -23.726658 1.107897 24.905820 7.674631 -11.194061 -0.421720 0.000001 0.000000 -0.000002 -0.021773 -0.038278 0.012988 -0.000000 -0.000000 -0.000003 -0.000002 0.000001 0.000001 -0.000001 -0.000000 -0.000003 0.000001 -0.000001 0.000004 0.009114 -0.002381 -0.024212 -0.000001 -0.000002 0.000002 -0.000001 0.000000 0.000002 0.000000 0.000001 0.000001 -0.032828 -0.025095 0.012286 0.000001 -0.000000 -0.000001 0.000003 0.000004 0.000003 0.000001 -0.000002 0.000001 -0.000004 0.000006 -0.000003 -0.039192 -0.011488 0.008390 -0.000000 0.000001 -0.000002 -0.000001 0.000000 -0.000002 -0.000002 -0.000002 0.000002 -0.000001 0.000004 -0.000002 -0.043421 0.002443 0.002844 0.000000 0.000000 0.000000 -0.000004 0.000002 0.000002 -0.000002 -0.000003 0.000000 -0.000003 0.000002 -0.000001 -0.000000 0.000000 -0.000000 -2.719397 0.276636 -3.693759 23.678487 0.157088 0.828737 16.608607 -1.098117 11.152765 0.000002 0.000001 -0.000001 0.000001 0.000001 -0.000000 0.000000 0.000000 -0.000001 -0.038000 -0.085200 0.016200 0.000004 -0.000000 -0.000000 -0.000000 -0.000000 -0.000000 -2.649988 0.272875 -2.459915 -74.034934 0.561243 2.823311 16.981853 0.284067 -2.866848 0.000000 -0.000000 -0.000000 0.000001 -0.000001 -0.000000 0.000005 -0.000000 0.000000 0.038000 -0.085200 0.016200 -0.000003 -0.000000 -0.000000 
